<svg xmlns="http://www.w3.org/2000/svg">
    <symbol id="icon-arrow-right" width="12" height="12" viewBox="0 0 12 12" fill="none" xmlns="http://www.w3.org/2000/svg">
        <path d="M4.3125 9.1875L7.6875 6L4.3125 2.8125" stroke="currentColor" stroke-width="1.5" stroke-linecap="round" stroke-linejoin="round"/>
    </symbol>

    <symbol id="icon-loupe" width="20" height="20" viewBox="0 0 20 20" fill="none" xmlns="http://www.w3.org/2000/svg">
        <path fill-rule="evenodd" clip-rule="evenodd" d="M11.5924 11.4138C10.1605 12.8457 7.83886 12.8457 6.40694 11.4138C4.97502 9.98187 4.97502 7.66027 6.40694 6.22834C7.83886 4.79642 10.1605 4.79642 11.5924 6.22834C13.0243 7.66027 13.0243 9.98187 11.5924 11.4138ZM12.0328 12.7968C10.0725 14.2961 7.25696 14.1494 5.46413 12.3566C3.51151 10.404 3.51151 7.23816 5.46413 5.28553C7.41675 3.33291 10.5826 3.33291 12.5352 5.28553C14.3279 7.07828 14.4747 9.8937 12.9755 11.8539L16.5423 15.4206L15.5994 16.3634L12.0328 12.7968Z" fill="currentColor"/>
    </symbol>

    <symbol id="cross-in-circle" width="22" height="22" viewBox="0 0 22 22" fill="none" xmlns="http://www.w3.org/2000/svg">
        <circle cx="11" cy="11" r="10.25" stroke="currentColor" stroke-width="1.5"/>
        <line x1="10.9999" y1="5.5" x2="10.9999" y2="16.5" stroke="currentColor" stroke-width="1.5"/>
        <line x1="5.49988" y1="11" x2="16.4999" y2="11" stroke="currentColor" stroke-width="1.5"/>
    </symbol>

    <symbol id="check" width="11" height="5" viewBox="0 0 11 5" fill="none" xmlns="http://www.w3.org/2000/svg">
        <line y1="-0.5" x2="3.765" y2="-0.5" transform="matrix(0.705933 0.708278 -0.705933 0.708278 0.700195 2.33313)" stroke="currentColor"/>
        <line y1="-0.5" x2="5.6475" y2="-0.5" transform="matrix(0.705933 -0.708278 0.705933 0.708278 3.35828 5.00006)" stroke="currentColor"/>
        <line y1="-0.5" x2="5.6475" y2="-0.5" transform="matrix(0.705933 -0.708278 0.705933 0.708278 6.01587 5.00006)" stroke="currentColor"/>
    </symbol>

    <symbol id="clip" width="32" height="32" viewBox="0 0 32 32" fill="none" xmlns="http://www.w3.org/2000/svg">
        <path fill-rule="evenodd" clip-rule="evenodd" d="M7.18662 13.5L14.7628 5.92389L15.7056 6.8667L8.12943 14.4428L7.18662 13.5Z" fill="currentColor"/>
        <path fill-rule="evenodd" clip-rule="evenodd" d="M9.70067 16.014L17.2768 8.43781L18.2196 9.38062L10.6435 16.9568L9.70067 16.014Z" fill="currentColor"/>
        <path fill-rule="evenodd" clip-rule="evenodd" d="M15.0433 21.3567L22.6195 13.7806L23.5623 14.7234L15.9861 22.2995L15.0433 21.3567Z" fill="currentColor"/>
        <path fill-rule="evenodd" clip-rule="evenodd" d="M17.5574 23.8706L25.1335 16.2945L26.0763 17.2373L18.5002 24.8134L17.5574 23.8706Z" fill="currentColor"/>
        <path fill-rule="evenodd" clip-rule="evenodd" d="M17.5574 23.8709C14.9423 26.486 10.7118 26.4954 8.10831 23.8919C5.50482 21.2884 5.51424 17.0579 8.12936 14.4428L7.18655 13.5C4.0484 16.6381 4.0371 21.7148 7.16129 24.839C10.2855 27.9632 15.3621 27.9518 18.5003 24.8137L17.5574 23.8709Z" fill="currentColor"/>
        <path fill-rule="evenodd" clip-rule="evenodd" d="M22.6195 13.7806L23.5623 14.7234C26.003 12.2826 26.0118 8.3341 23.5819 5.90417C21.152 3.47424 17.2035 3.48304 14.7627 5.92381L15.7055 6.86662C17.6233 4.94887 20.7257 4.94196 22.6349 6.85119C24.5441 8.76042 24.5372 11.8628 22.6195 13.7806Z" fill="currentColor"/>
        <path fill-rule="evenodd" clip-rule="evenodd" d="M9.70092 16.0144C7.95751 17.7578 7.95123 20.5782 9.68689 22.3138C11.4226 24.0495 14.2429 24.0432 15.9863 22.2998L15.0435 21.357C13.8231 22.5774 11.8489 22.5818 10.6339 21.3668C9.41894 20.1518 9.42334 18.1776 10.6437 16.9572L9.70092 16.0144Z" fill="currentColor"/>
    </symbol>

    <symbol id="preview" width="22" height="22" viewBox="0 0 22 22" fill="none" xmlns="http://www.w3.org/2000/svg">
        <path fill-rule="evenodd" clip-rule="evenodd" d="M4 1.5H18C19.3807 1.5 20.5 2.61929 20.5 4V14L14.5194 12.4052C13.5108 12.1362 12.4714 12 11.4275 12H10.5725C9.52864 12 8.48921 12.1362 7.48057 12.4052L1.5 14V4C1.5 2.61929 2.61929 1.5 4 1.5ZM0 4C0 1.79086 1.79086 0 4 0H18C20.2091 0 22 1.79086 22 4V18C22 20.2091 20.2091 22 18 22H4C1.79086 22 0 20.2091 0 18V4ZM8 6C8 7.10457 7.10457 8 6 8C4.89543 8 4 7.10457 4 6C4 4.89543 4.89543 4 6 4C7.10457 4 8 4.89543 8 6Z" fill="currentColor"/>
    </symbol>

    <symbol id="figure" width="22" height="22" viewBox="0 0 22 22" fill="none" xmlns="http://www.w3.org/2000/svg">
        <path fill-rule="evenodd" clip-rule="evenodd" d="M4 1.5H18C19.3807 1.5 20.5 2.61929 20.5 4V12H16C13.7909 12 12 13.7909 12 16V20.5H4C2.61929 20.5 1.5 19.3807 1.5 18V4C1.5 2.61929 2.61929 1.5 4 1.5ZM12 22H4C1.79086 22 0 20.2091 0 18V4C0 1.79086 1.79086 0 4 0H18C20.2091 0 22 1.79086 22 4V12V18C22 20.2091 20.2091 22 18 22H12Z" fill="currentColor"/>
    </symbol>

    <symbol id="circle" width="22" height="22" viewBox="0 0 22 22" fill="none" xmlns="http://www.w3.org/2000/svg">
        <path fill-rule="evenodd" clip-rule="evenodd" d="M20.5 11C20.5 16.2467 16.2467 20.5 11 20.5C5.75329 20.5 1.5 16.2467 1.5 11C1.5 5.75329 5.75329 1.5 11 1.5C16.2467 1.5 20.5 5.75329 20.5 11ZM22 11C22 17.0751 17.0751 22 11 22C4.92487 22 0 17.0751 0 11C0 4.92487 4.92487 0 11 0C17.0751 0 22 4.92487 22 11ZM11 14C12.6569 14 14 12.6569 14 11C14 9.34315 12.6569 8 11 8C9.34315 8 8 9.34315 8 11C8 12.6569 9.34315 14 11 14Z" fill="currentColor"/>
    </symbol>

    <symbol id="arrow-right-2" width="13" height="12" viewBox="0 0 13 12" fill="none" xmlns="http://www.w3.org/2000/svg">
        <path d="M0 5.19995H11V6.79995H0V5.19995Z" fill="currentColor"/>
        <path fill-rule="evenodd" clip-rule="evenodd" d="M9.9755 6L6.37531 1.49976L7.6247 0.500244L12.0245 6L7.6247 11.4998L6.37531 10.5002L9.9755 6Z" fill="currentColor"/>
    </symbol>

    <symbol id="preview-2" width="40" height="40" viewBox="0 0 40 40" fill="none" xmlns="http://www.w3.org/2000/svg">
        <path fill-rule="evenodd" clip-rule="evenodd" d="M36 2H4C2.89543 2 2 2.89543 2 4V25.2667L14.6547 22.3139C15.5486 22.1053 16.4635 22 17.3814 22H22.6186C23.5365 22 24.4514 22.1053 25.3453 22.3139L38 25.2667V4C38 2.89543 37.1046 2 36 2ZM4 0C1.79086 0 0 1.79086 0 4V36C0 38.2091 1.79086 40 4 40H36C38.2091 40 40 38.2091 40 36V4C40 1.79086 38.2091 0 36 0H4ZM10.9091 14.5455C12.9174 14.5455 14.5455 12.9174 14.5455 10.9091C14.5455 8.90079 12.9174 7.27273 10.9091 7.27273C8.90082 7.27273 7.27276 8.90079 7.27276 10.9091C7.27276 12.9174 8.90082 14.5455 10.9091 14.5455Z" fill="currentColor"/>
    </symbol>

    <symbol id="delete" width="22" height="23" viewBox="0 0 22 23" fill="none" xmlns="http://www.w3.org/2000/svg">
        <path d="M2.75 5.99998H19.25M4.58333 5.99998V18.8333C4.58333 19.8459 5.40414 20.6666 6.41667 20.6666H15.5833C16.5959 20.6666 17.4167 19.8459 17.4167 18.8333V5.99998M7.33333 5.99998V4.16665C7.33333 3.15412 8.15414 2.33331 9.16667 2.33331H12.8333C13.8459 2.33331 14.6667 3.15412 14.6667 4.16665V5.99998" stroke="currentColor" stroke-width="1.5" stroke-linecap="round" stroke-linejoin="round"/>
        <path d="M12.8333 10.5833V16.0833" stroke="currentColor" stroke-width="1.5" stroke-linecap="round" stroke-linejoin="round"/>
        <path d="M9.16669 10.5833V16.0833" stroke="currentColor" stroke-width="1.5" stroke-linecap="round" stroke-linejoin="round"/>
    </symbol>
</svg>
